<svg width="60" height="60" viewBox="0 0 60 60" fill="none" xmlns="http://www.w3.org/2000/svg">
<mask id="mask0_120_33" style="mask-type:luminance" maskUnits="userSpaceOnUse" x="0" y="0" width="60" height="60">
<path d="M60 30C60 13.4315 46.5685 0 30 0C13.4315 0 0 13.4315 0 30C0 46.5685 13.4315 60 30 60C46.5685 60 60 46.5685 60 30Z" fill="white"/>
</mask>
<g mask="url(#mask0_120_33)">
<path d="M60 0H0V60H60V0Z" fill="#6F939B"/>
<path d="M54.2703 25.6998C44.5315 12.2956 25.7704 9.32411 12.3662 19.0629C-1.03802 28.8016 -4.00948 47.5627 5.72926 60.9669C15.468 74.3712 34.2291 77.3426 47.6333 67.6039C61.0376 57.8651 64.009 39.104 54.2703 25.6998Z" fill="#D5E212"/>
<path d="M14.9038 37.748C14.7882 39.4016 15.5531 41.0487 17.0304 42.327C18.5076 43.6052 20.5761 44.41 22.7809 44.5641C24.9856 44.7183 27.146 44.2093 28.7868 43.149C30.4275 42.0888 31.4142 40.5642 31.5299 38.9107" fill="black"/>
<path d="M12.8747 30.9232C12.9389 30.0049 12.4327 29.2215 11.744 29.1734C11.0554 29.1252 10.445 29.8306 10.3808 30.7488C10.3166 31.667 10.8228 32.4504 11.5115 32.4986C12.2002 32.5467 12.8105 31.8414 12.8747 30.9232Z" fill="black"/>
<path d="M36.1511 32.5509C36.2153 31.6326 35.7091 30.8492 35.0204 30.8011C34.3317 30.7529 33.7214 31.4582 33.6572 32.3765C33.593 33.2947 34.0992 34.0781 34.7879 34.1263C35.4765 34.1744 36.0869 33.4691 36.1511 32.5509Z" fill="black"/>
</g>
</svg>
